<svg xmlns="http://www.w3.org/2000/svg" viewBox="0 0 480 480" width="480" height="480">
  <rect width="480" height="480" rx="64" fill="#f6f1e8"/>
  <rect x="26" y="26" width="428" height="428" rx="46" fill="none" stroke="#14213d" stroke-width="2" opacity="0.16"/>

  <!-- Achaemenid stepped merlon -->
  <path d="M116,394 L116,214 L152,214 L152,182 L188,182 L188,150 L216,150 L216,120 L264,120 L264,150 L292,150 L292,182 L328,182 L328,214 L364,214 L364,394 Z" fill="#ffffff" stroke="#14213d" stroke-width="4" opacity="0.92"/>

  <!-- boteh in the corners, mirrored like a carpet border -->
  <g transform="translate(62,66) rotate(-18) scale(0.85)">
    <path d="M0,17 C-15,10 -17,-6 -7,-13 C0,-18 10,-14 10,-6 C10,-1 4,2 1,-2" fill="none" stroke="#800000" stroke-width="3.4" stroke-linecap="round" opacity="0.6"/>
  </g>
  <g transform="translate(418,66) rotate(18) scale(0.85)">
    <path d="M0,17 C-15,10 -17,-6 -7,-13 C0,-18 10,-14 10,-6 C10,-1 4,2 1,-2" fill="none" stroke="#800000" stroke-width="3.4" stroke-linecap="round" opacity="0.6"/>
  </g>
  <g transform="translate(62,414) rotate(-162) scale(0.85)">
    <path d="M0,17 C-15,10 -17,-6 -7,-13 C0,-18 10,-14 10,-6 C10,-1 4,2 1,-2" fill="none" stroke="#0047ab" stroke-width="3.4" stroke-linecap="round" opacity="0.5"/>
  </g>
  <g transform="translate(418,414) rotate(162) scale(0.85)">
    <path d="M0,17 C-15,10 -17,-6 -7,-13 C0,-18 10,-14 10,-6 C10,-1 4,2 1,-2" fill="none" stroke="#0047ab" stroke-width="3.4" stroke-linecap="round" opacity="0.5"/>
  </g>

  <g>
    <circle cx="240" cy="256" r="66" fill="none" stroke="#0047ab" stroke-width="11"/>
    <circle cx="240" cy="256" r="50" fill="none" stroke="#0047ab" stroke-width="4" opacity="0.55"/>
    <line x1="250.2" y1="256.0" x2="270.0" y2="256.0" stroke="#800000" stroke-width="3" stroke-linecap="round" opacity="0.9"/><line x1="248.8" y1="261.1" x2="266.0" y2="271.0" stroke="#800000" stroke-width="3" stroke-linecap="round" opacity="0.9"/><line x1="245.1" y1="264.8" x2="255.0" y2="282.0" stroke="#800000" stroke-width="3" stroke-linecap="round" opacity="0.9"/><line x1="240.0" y1="266.2" x2="240.0" y2="286.0" stroke="#800000" stroke-width="3" stroke-linecap="round" opacity="0.9"/><line x1="234.9" y1="264.8" x2="225.0" y2="282.0" stroke="#800000" stroke-width="3" stroke-linecap="round" opacity="0.9"/><line x1="231.2" y1="261.1" x2="214.0" y2="271.0" stroke="#800000" stroke-width="3" stroke-linecap="round" opacity="0.9"/><line x1="229.8" y1="256.0" x2="210.0" y2="256.0" stroke="#800000" stroke-width="3" stroke-linecap="round" opacity="0.9"/><line x1="231.2" y1="250.9" x2="214.0" y2="241.0" stroke="#800000" stroke-width="3" stroke-linecap="round" opacity="0.9"/><line x1="234.9" y1="247.2" x2="225.0" y2="230.0" stroke="#800000" stroke-width="3" stroke-linecap="round" opacity="0.9"/><line x1="240.0" y1="245.8" x2="240.0" y2="226.0" stroke="#800000" stroke-width="3" stroke-linecap="round" opacity="0.9"/><line x1="245.1" y1="247.2" x2="255.0" y2="230.0" stroke="#800000" stroke-width="3" stroke-linecap="round" opacity="0.9"/><line x1="248.8" y1="250.9" x2="266.0" y2="241.0" stroke="#800000" stroke-width="3" stroke-linecap="round" opacity="0.9"/><circle cx="240" cy="256" r="7.8" fill="none" stroke="#800000" stroke-width="3" opacity="0.9"/>
    <path d="M240,190 v-16" fill="none" stroke="#800000" stroke-width="8" stroke-linecap="round" stroke-linejoin="round"/></g>
</svg>
